<svg width="253" height="67" viewBox="0 0 253 67" fill="none" xmlns="http://www.w3.org/2000/svg">
<path d="M81.0263 24.9487C79.5364 23.3478 77.7053 22.1028 75.6688 21.3059C71.1088 19.6003 66.0795 19.6383 61.5458 21.4127C59.3924 22.2853 57.4335 23.5767 55.7828 25.212C54.1195 26.8976 52.8213 28.9078 51.9692 31.1173C51.047 33.4915 50.5858 36.0197 50.6103 38.5666C50.5881 41.1354 51.0716 43.6835 52.0333 46.0656C52.9103 48.2354 54.2172 50.2054 55.8753 51.8571C57.5439 53.4831 59.5267 54.7517 61.7023 55.5853C66.8129 57.4872 72.4617 57.3342 77.4617 55.1584C80.083 53.9115 82.3523 52.0311 84.0643 49.687L84.4129 49.2317L78.721 44.6782L78.3582 45.226C77.3943 46.6228 76.1333 47.7891 74.6656 48.6412C73.2181 49.4445 71.6135 49.9242 69.9625 50.0471C68.3116 50.1699 66.6537 49.933 65.1032 49.3527C63.8982 48.879 62.791 48.1867 61.8375 47.3107C60.8934 46.4423 60.1273 45.3983 59.5821 44.2371C59.0979 43.2453 58.792 42.1759 58.6785 41.0781H85.4375L85.5015 40.5516C85.5519 40.1504 85.578 39.7464 85.5798 39.3421V38.1752C85.6123 35.6274 85.2154 33.0922 84.4058 30.6762C83.6832 28.5558 82.5329 26.6065 81.0263 24.9487ZM77.5115 34.9095H58.707C58.8472 33.9171 59.1526 32.9551 59.6106 32.0636C60.1481 30.9962 60.8708 30.0326 61.745 29.2176C62.649 28.3932 63.6985 27.7442 64.84 27.3038C66.0525 26.8283 67.3441 26.5869 68.6464 26.5923C69.9692 26.5636 71.284 26.8057 72.5098 27.3038C73.5409 27.7293 74.468 28.3724 75.2277 29.1892C75.9736 30.0112 76.5384 30.9808 76.8854 32.0351C77.2082 32.9526 77.4184 33.9058 77.5115 34.8739V34.9095Z" fill="#161949"/>
<path d="M178.893 25.1334C177.411 23.536 175.59 22.2911 173.564 21.4906C169.004 19.7825 163.973 19.823 159.441 21.6044C157.272 22.4767 155.3 23.776 153.642 25.4251C151.983 27.0977 150.685 29.0931 149.829 31.2877C148.906 33.6642 148.445 36.1948 148.47 38.7441C148.448 41.3128 148.932 43.8608 149.893 46.2431C150.771 48.412 152.078 50.3817 153.735 52.0346C155.403 53.6606 157.386 54.9292 159.562 55.7628C164.672 57.6647 170.321 57.5117 175.321 55.3359C177.941 54.087 180.21 52.207 181.924 49.8646L182.272 49.4021L176.58 44.8557L176.218 45.3964C175.246 46.8108 173.973 47.9918 172.489 48.8543C170.782 49.8301 168.842 50.322 166.876 50.2772C164.206 50.2804 161.632 49.2827 159.661 47.4811C158.721 46.6079 157.958 45.5619 157.413 44.4004C156.942 43.411 156.648 42.3466 156.545 41.2556H183.311L183.368 40.7291C183.418 40.3278 183.444 39.9239 183.446 39.5196V38.3812C183.478 35.8311 183.081 33.2937 182.272 30.875C181.549 28.7507 180.399 26.7967 178.893 25.1334ZM175.378 35.0941H156.574C156.716 34.1022 157.021 33.1405 157.477 32.2482C158.015 31.1808 158.737 30.2172 159.612 29.4023C160.517 28.5797 161.566 27.9309 162.707 27.4884C163.919 27.0122 165.211 26.7708 166.513 26.7769C167.835 26.7518 169.149 26.9938 170.376 27.4884C171.407 27.9139 172.335 28.557 173.094 29.3738C173.837 30.1981 174.401 31.167 174.752 32.2197C175.075 33.1371 175.285 34.0904 175.378 35.0586V35.0941Z" fill="#161949"/>
<path d="M219.297 20.9783H208.589L195.043 35.0017V0.878906H187.152V55.9478H195.043V39.171L209.642 55.9478H220.542L202.833 36.9156L219.297 20.9783Z" fill="#161949"/>
<path d="M112.736 20.9785V39.534C112.736 42.7499 111.939 45.3397 110.374 47.2394C109.652 48.1589 108.724 48.8957 107.665 49.3901C106.606 49.8845 105.445 50.1227 104.276 50.0853C103.043 50.1376 101.817 49.8679 100.719 49.3027C99.8378 48.8123 99.1016 48.0981 98.5845 47.2323C98.0232 46.2777 97.6489 45.2249 97.4818 44.1302C97.2705 42.8557 97.1657 41.5659 97.1687 40.274V20.9785H89.2855V42.5009C89.2751 44.3691 89.5363 46.229 90.061 48.022C90.5486 49.6918 91.361 51.2488 92.4516 52.604C93.5605 53.9618 94.9777 55.0351 96.5853 55.7345C98.4564 56.5158 100.471 56.8963 102.498 56.8516C104.988 56.8748 107.434 56.1888 109.549 54.8736C110.926 54.0464 112.133 52.9647 113.106 51.6862V55.9551H120.626V20.9785H112.736Z" fill="#161949"/>
<path d="M148.475 27.8941V20.388L148.006 20.2883C147.189 20.1224 146.356 20.0437 145.523 20.0536C143.215 20.0284 140.952 20.695 139.027 21.9675C137.655 22.8754 136.481 24.0516 135.576 25.4253V20.9785H128.027V55.9479H135.918V37.6059C135.911 36.2778 136.093 34.9554 136.458 33.6785C136.796 32.4914 137.359 31.3803 138.116 30.4057C138.859 29.4688 139.802 28.7103 140.877 28.1858C142.106 27.6064 143.453 27.3214 144.811 27.3534C145.796 27.3466 146.778 27.4613 147.735 27.6949L148.475 27.8941Z" fill="#161949"/>
<path d="M252.112 28.4986C251.536 26.8496 250.615 25.343 249.408 24.0803C248.108 22.7814 246.539 21.7832 244.812 21.1561C242.723 20.4045 240.514 20.0428 238.295 20.0889C235.584 20.0679 232.891 20.538 230.347 21.4763C228.028 22.3135 225.897 23.6024 224.079 25.2685L223.674 25.6598L228.014 30.8679L228.469 30.4054C229.643 29.2626 231.021 28.3504 232.532 27.716C234.151 27.0082 235.901 26.6471 237.669 26.6559C239.702 26.5535 241.71 27.1484 243.36 28.3421C244.712 29.4449 245.424 31.1169 245.424 33.4719V33.8063C242.77 33.8063 240.102 33.9415 237.484 34.162C234.857 34.358 232.266 34.8839 229.771 35.7273C227.607 36.421 225.651 37.6438 224.079 39.2847C222.599 40.8856 221.852 43.0698 221.852 45.7806C221.797 47.6166 222.24 49.4333 223.133 51.0384C223.912 52.39 224.984 53.5497 226.271 54.4322C227.532 55.2868 228.937 55.9085 230.418 56.2679C231.829 56.6214 233.276 56.8053 234.73 56.8157C237.138 56.8722 239.523 56.3346 241.674 55.2504C243.204 54.4349 244.564 53.3336 245.68 52.0061V55.9619H253.001V33.9059C253.014 32.066 252.713 30.2374 252.112 28.4986ZM245.424 39.8397V41.0279C245.507 43.4811 244.655 45.8743 243.04 47.7229C241.482 49.459 239.198 50.3412 236.253 50.3412C235.454 50.3411 234.658 50.2601 233.876 50.0993C233.164 49.9556 232.484 49.6832 231.87 49.2953C231.295 48.934 230.808 48.4476 230.447 47.8723C230.078 47.2051 229.899 46.4499 229.928 45.6881C229.901 45.1323 229.997 44.5773 230.21 44.0632C230.423 43.549 230.747 43.0883 231.158 42.7141C232.13 41.8678 233.281 41.2524 234.524 40.914C236.069 40.4779 237.654 40.199 239.255 40.0816C241.012 39.9393 242.734 39.8681 244.371 39.8681L245.424 39.8397Z" fill="#161949"/>
<path d="M38.0957 66.1218H4.02979C3.23367 66.1251 2.45454 65.8916 1.79151 65.4509C1.12848 65.0102 0.611525 64.3823 0.306405 63.6469C0.00128555 62.9116 -0.0782053 62.1021 0.0780437 61.3215C0.234293 60.5408 0.619219 59.8243 1.18386 59.2631L22.7632 37.6908L1.80285 16.7305C1.24067 16.1689 0.8579 15.453 0.703065 14.6735C0.54823 13.8941 0.6283 13.0863 0.933126 12.3524C1.23795 11.6185 1.75381 10.9917 2.4153 10.5513C3.07679 10.111 3.85413 9.87697 4.64879 9.87892H38.0886C39.1245 9.92253 40.1035 10.3647 40.8211 11.1132C41.5387 11.8616 41.9394 12.8584 41.9394 13.8952C41.9394 14.9321 41.5387 15.9289 40.8211 16.6773C40.1035 17.4258 39.1245 17.868 38.0886 17.9116H14.3392L31.2654 34.852C32.0197 35.6071 32.4433 36.6307 32.4433 37.698C32.4433 38.7652 32.0197 39.7888 31.2654 40.5439L13.7273 58.0891H38.0957C39.1316 58.1327 40.1107 58.5749 40.8282 59.3234C41.5458 60.0718 41.9465 61.0686 41.9465 62.1054C41.9465 63.1423 41.5458 64.1391 40.8282 64.8875C40.1107 65.6359 39.1316 66.0781 38.0957 66.1218Z" fill="#71BD54"/>
</svg>
